# xmcd CD database file
#
# Track frame offsets:
#	150
#	14140
#	24031
#	37133
#	48628
#	57770
#	72116
#	84157
#	93626
#	101490
#	115586
#	126961
#	139775
#	150360
#	159712
#	171813
#	187157
#	197633
#	208741
#	219541
#	234713
#	243706
#
# Disc length: 3423 seconds
#
# Revision: 0
# Processed by: cddbd v1.5.1PL2 Copyright (c) Steve Scherf et al.
# Submitted via: CDex 1.51
#
DISCID=390d5d16
DTITLE=Jim Reeves - The International Jim Reeves - Good 'N' Country
DYEAR=2004
DGENRE=Country
TTITLE0=Auf Wiederseh'n Sweetheart
TTITLE1=The Old Kalahari
TTITLE2=(There'll Be Bluebirds Over) The White Cliffs Of Dover
TTITLE3=True
TTITLE4=I'm Crying Again
TTITLE5=Guilty
TTITLE6=Blue Canadian Rockies
TTITLE7=The Hawaiian Wedding Song
TTITLE8=You Are My Love
TTITLE9=Heartbreak In Silhouette
TTITLE10=Tahiti
TTITLE11=Golden Memories And Silver Tears
TTITLE12=Don't Let Me Cross Over
TTITLE13=There's A Heartache Following Me
TTITLE14=The Talking Walls
TTITLE15=Little Ole Dime
TTITLE16=The World You Left Behind
TTITLE17=I've Enjoyed As Much Of This As I Can Stand
TTITLE18=Lonely Music
TTITLE19=Bottle, Take Effect
TTITLE20=You Kept Me Awake Last Night
TTITLE21=Before I Died
EXTD=YEAR: 2004
EXTT0=
EXTT1=
EXTT2=
EXTT3=
EXTT4=
EXTT5=
EXTT6=
EXTT7=
EXTT8=
EXTT9=
EXTT10=
EXTT11=
EXTT12=
EXTT13=
EXTT14=
EXTT15=
EXTT16=
EXTT17=
EXTT18=
EXTT19=
EXTT20=
EXTT21=
PLAYORDER=
